<svg width="21" height="20" viewBox="0 0 21 20" fill="none" xmlns="http://www.w3.org/2000/svg">
<path d="M9.88455 0.01884C7.01301 0.145975 4.53528 1.80694 3.34974 4.40295C3.05438 5.05503 2.89029 5.62919 2.74672 6.49863C2.7221 6.66268 2.67698 6.81032 2.65237 6.83083C2.62365 6.85543 2.3529 6.88004 2.04934 6.88824C1.54477 6.90055 1.47503 6.90875 1.26992 7.01128C0.695614 7.29425 0.2977 7.95864 0.0966921 8.97162C0.00644357 9.42274 -0.0345785 11.6907 0.035159 12.2279C0.178736 13.2942 0.748943 14.0283 1.55708 14.1801C1.85244 14.2375 4.203 14.2334 4.46964 14.176C4.74039 14.1185 4.99062 13.9217 5.12189 13.6674L5.22855 13.4665V10.5711C5.22855 7.86841 5.22445 7.66746 5.15471 7.48701C5.03164 7.16712 4.63373 6.88004 4.31376 6.88004C4.18659 6.88004 4.17018 6.76111 4.24812 6.3592C4.62142 4.34964 6.05719 2.63126 8.00574 1.86025C8.69901 1.58547 9.45382 1.46654 10.4999 1.46654C11.8618 1.46654 12.6371 1.63879 13.6627 2.17194C14.4175 2.56154 15.2256 3.26284 15.722 3.96003C16.2184 4.64902 16.604 5.55127 16.7598 6.3715C16.8378 6.78161 16.8255 6.88004 16.6901 6.88004C16.366 6.88004 15.9722 7.16302 15.8451 7.48701C15.7753 7.66746 15.7712 7.86841 15.7712 10.5711V13.4665L15.8779 13.6674C16.0707 14.0488 16.4235 14.2211 17.0019 14.2211C17.1455 14.2211 17.2726 14.2375 17.289 14.2621C17.3013 14.2826 17.2726 14.4507 17.2275 14.6394C16.7516 16.5341 15.8902 17.7029 14.7416 18.0187C14.4749 18.0884 12.9284 18.15 12.6617 18.1007C12.5469 18.0802 12.4812 18.031 12.3869 17.8916C12.2105 17.6332 12.03 17.4774 11.7716 17.3461C11.55 17.2395 11.5254 17.2354 10.6968 17.2231C9.56868 17.2026 9.30204 17.2641 8.92874 17.6168C8.20265 18.3099 8.44878 19.5238 9.38818 19.8847C9.58099 19.9627 9.72457 19.9791 10.3358 19.9955C11.6157 20.0283 11.9972 19.8929 12.4361 19.2532L12.5059 19.1547L13.5437 19.1342C14.3231 19.1178 14.6554 19.0932 14.8851 19.0399C16.5178 18.6585 17.6172 17.2805 18.2325 14.8444C18.3105 14.5492 18.3843 14.2826 18.3966 14.2621C18.4089 14.2375 18.6017 14.2211 18.8233 14.2211C19.3237 14.2211 19.5986 14.1719 19.8775 14.0283C20.4477 13.7412 20.8415 13.1015 20.9564 12.273C21.0138 11.8711 21.0138 9.9682 20.9605 9.42685C20.862 8.49999 20.5872 7.78639 20.1606 7.35167C19.7832 6.97027 19.6232 6.90875 18.9422 6.88824C18.5689 6.87594 18.3679 6.85543 18.3392 6.82262C18.3146 6.79392 18.2695 6.58886 18.2325 6.3633C17.8182 3.77138 16.1773 1.65109 13.7816 0.617606C12.9776 0.27311 12.2023 0.0926604 11.2588 0.0311434C10.6681 -0.00576681 10.4671 -0.00986795 9.88455 0.01884Z" fill="white"/>
</svg>
