<svg width="105" height="42" viewBox="0 0 105 42" fill="none" xmlns="http://www.w3.org/2000/svg">
<g clip-path="url(#clip0_235_430)">
<path d="M17.0923 11.3653L17.0468 11.6046C16.8646 12.562 16.3781 13.4734 15.5817 14.3499C14.783 15.2286 13.5801 15.8691 11.9617 16.3276C11.9062 16.3276 11.8218 16.3546 11.704 16.4074C11.2742 16.5434 10.8099 16.6906 10.3078 16.8535C9.80684 17.0164 9.34032 17.167 8.91157 17.303C8.39618 17.4659 7.89078 17.6615 7.44648 17.7941C7.13102 17.8885 6.76891 18.0121 6.44235 18.2042C6.17022 18.3649 5.90697 18.5818 5.65593 18.8414C5.4049 19.1021 5.24051 19.4381 5.16387 19.8482L5.15609 19.8887C4.41744 23.8363 4.14308 25.4657 3.38332 29.5223C2.02709 29.5212 1.35063 29.52 -0.00115967 29.5189C1.8838 19.5482 2.65133 15.2612 4.5163 5.95459C4.5996 5.54107 4.63959 5.33767 4.71956 4.92976C4.7751 4.64322 4.90728 4.23306 5.11388 3.69592C5.31937 3.15991 5.70148 2.62615 6.25797 2.08564C6.81557 1.54513 7.57755 1.06755 8.54169 0.659644C9.50694 0.250612 10.7832 0.0427246 12.376 0.0427246C13.9666 0.0427246 15.1851 0.247241 16.0293 0.643912C16.8735 1.04171 17.48 1.50693 17.8432 2.04294C18.2064 2.57895 18.3919 3.11721 18.3986 3.66221C18.4052 4.20721 18.3797 4.62524 18.323 4.9174C18.2597 5.25227 18.2275 5.4197 18.162 5.75457C17.731 7.98964 17.5166 9.13358 17.0923 11.3664V11.3653ZM7.08881 14.7196C7.47758 14.5802 7.88634 14.442 8.31509 14.3049C8.74384 14.1678 9.1726 14.0229 9.60246 13.8723C10.0323 13.7217 10.4178 13.5925 10.7588 13.4835C10.9298 13.4296 11.0998 13.3767 11.2708 13.3217C11.4408 13.2689 11.5985 13.2138 11.7429 13.1599C12.4827 12.9183 12.9892 12.5823 13.2569 12.1541C13.5245 11.7271 13.6912 11.3428 13.7567 10.9967C13.7834 10.854 13.7978 10.7821 13.8245 10.6394C14.1766 8.77737 14.3598 7.82221 14.7253 5.95459C14.7597 5.77929 14.7764 5.69164 14.8108 5.51634C14.8575 5.27699 14.8675 5.01966 14.8408 4.7421C14.8141 4.46455 14.6953 4.20722 14.4876 3.97011C14.2788 3.73301 13.9633 3.52737 13.5434 3.35769C13.1236 3.18688 12.526 3.1026 11.754 3.10485C11.0364 3.1071 10.4422 3.19587 9.97123 3.3678C9.50138 3.54198 9.12261 3.75885 8.8327 4.0218C8.54391 4.28475 8.33842 4.55332 8.21957 4.82863C8.09849 5.10506 8.01519 5.36127 7.96853 5.59837C7.94076 5.74109 7.92633 5.81188 7.89745 5.95572C7.17878 9.55161 6.87999 11.4765 6.11912 15.0466C6.37571 14.9679 6.69894 14.86 7.0877 14.7207L7.08881 14.7196Z" fill="#3C3C3B"/>
<path d="M29.1575 29.5403C28.3855 24.6296 28.2011 22.072 27.3103 17.0546C26.9993 17.1625 26.7161 17.2637 26.4606 17.3581C26.2051 17.4536 25.9796 17.5277 25.7841 17.5805C25.5309 17.6615 25.4042 17.7019 25.1499 17.7839C24.8111 17.8918 24.479 18.0267 24.1591 18.1896C23.8947 18.3244 23.647 18.5222 23.4149 18.7796C23.1827 19.038 23.0206 19.356 22.9273 19.7336C22.2297 23.6891 21.6965 25.6443 20.9379 29.5391C19.5817 29.538 18.9019 29.5369 17.5423 29.5358C19.3939 20.001 20.2792 15.2106 22.0786 5.75344C22.1431 5.41745 22.1742 5.24889 22.2375 4.9129C22.293 4.61961 22.4241 4.19934 22.6307 3.65097C22.8351 3.10372 23.2083 2.56096 23.747 2.02158C24.2846 1.48219 25.0299 1.01585 25.9852 0.624798C26.9393 0.233745 28.2056 0.0404663 29.7973 0.0404663C31.3879 0.0404663 32.6197 0.230374 33.4784 0.612438C34.3359 0.994501 34.9523 1.44961 35.3222 1.98449C35.691 2.51826 35.8776 3.06214 35.8865 3.61501C35.8943 4.169 35.8687 4.59489 35.8132 4.89155C35.7343 5.31294 35.6954 5.5242 35.6166 5.94335C35.2633 7.83231 35.089 8.79534 34.728 10.6663C34.6535 11.0495 34.6169 11.2417 34.5436 11.6249C34.3803 12.4766 33.9915 13.2902 33.3839 14.0734C32.7764 14.8578 31.8789 15.4713 30.6848 15.9253C31.6623 21.3427 31.9244 24.1554 32.7797 29.538C31.3279 29.538 30.6026 29.538 29.1575 29.5403ZM24.6867 14.7241C25.0699 14.5881 25.4731 14.4521 25.8952 14.3173C26.3184 14.1824 26.7405 14.0408 27.1648 13.8936C27.588 13.7464 27.969 13.6194 28.3067 13.5116C28.4755 13.4588 28.6443 13.4059 28.8143 13.3509C28.9831 13.2981 29.1397 13.2441 29.283 13.1902C29.9917 12.9497 30.4871 12.616 30.7681 12.1901C31.0491 11.7653 31.2213 11.3934 31.2835 11.0742C31.6911 8.97064 31.8877 7.87614 32.2854 5.74894C32.3032 5.6523 32.3121 5.60398 32.3309 5.50734C32.3765 5.26462 32.3854 5.00167 32.3587 4.71962C32.3309 4.43644 32.2121 4.17349 32.0033 3.93189C31.7933 3.6903 31.4779 3.48128 31.0591 3.30711C30.6393 3.13406 30.0439 3.04753 29.2741 3.04978C28.5577 3.05202 27.9645 3.14192 27.4947 3.31722C27.026 3.49477 26.6472 3.71614 26.3595 3.98471C26.0707 4.25328 25.8663 4.52859 25.7486 4.80952C25.6286 5.09157 25.5464 5.35227 25.502 5.59275C25.4742 5.73771 25.4609 5.80962 25.4342 5.95346C24.7511 9.57632 24.3524 11.4619 23.7337 15.0477C23.988 14.969 24.3068 14.8612 24.6889 14.7241H24.6867Z" fill="#3C3C3B"/>
<path d="M40.665 0.349476C42.029 0.349476 42.7121 0.348353 44.0772 0.347229C42.3133 11.5574 40.8094 17.8873 38.5945 29.5369C37.2372 29.5369 36.5574 29.5369 35.2 29.538C37.4371 17.948 39.0033 11.6394 40.665 0.349476Z" fill="#3C3C3B"/>
<path d="M66.3424 29.5302C65.0028 29.5302 64.3331 29.5302 62.9935 29.5302C64.7962 19.9381 65.6515 15.4062 67.4654 5.89955C67.4998 5.72087 67.5165 5.6321 67.5498 5.45343C67.5965 5.20958 67.6065 4.94663 67.5798 4.66346C67.5531 4.38028 67.4365 4.11733 67.2299 3.87461C67.0222 3.63301 66.709 3.42288 66.2913 3.2487C65.8737 3.07452 65.2772 2.98575 64.5074 2.9835C63.7644 2.98238 63.1579 3.06891 62.6869 3.24196C62.216 3.41726 61.8427 3.63863 61.5673 3.90832C61.2907 4.17801 61.0919 4.45557 60.9719 4.74099C60.8508 5.02642 60.7686 5.29162 60.722 5.53659C60.6942 5.68379 60.6798 5.75683 60.652 5.90404C58.8281 15.4612 57.9751 19.9471 56.1756 29.5313C54.8216 29.5313 54.1441 29.5313 52.7912 29.5313C54.5939 19.9516 55.4381 15.4848 57.2686 5.90516C57.3031 5.72537 57.3197 5.63547 57.3542 5.45568C57.4008 5.20958 57.4108 4.94326 57.3853 4.65784C57.3586 4.37242 57.242 4.1061 57.0365 3.86112C56.8299 3.61728 56.5166 3.4049 56.1001 3.2296C55.6825 3.05317 55.0893 2.9644 54.3196 2.96665C53.6042 2.96889 53.0078 3.05879 52.5357 3.23522C52.0636 3.41276 51.6815 3.63751 51.3905 3.90944C51.0984 4.18138 50.8918 4.46119 50.7718 4.74661C50.6507 5.03316 50.5663 5.29948 50.5197 5.54445C50.4919 5.69166 50.4775 5.7647 50.4486 5.91191C48.608 15.4747 47.7417 20.0157 45.9678 29.5335C44.6038 29.5335 43.9184 29.5335 42.5489 29.5347C44.3216 20.064 45.2025 15.4567 47.0319 5.91865C47.113 5.49501 47.1541 5.28263 47.234 4.85898C47.2907 4.56008 47.4251 4.13082 47.6361 3.5757C47.8461 3.02171 48.2348 2.47671 48.8002 1.94519C49.3656 1.41367 50.1387 0.964186 51.1161 0.591112C52.0936 0.218039 53.3888 0.0393677 54.9838 0.0393677C56.2601 0.0393677 57.2686 0.157358 58.0206 0.397833C58.7715 0.639432 59.3646 0.941711 59.8012 1.30804C60.3988 0.943959 61.1196 0.643927 61.9627 0.401204C62.8047 0.159605 63.8643 0.0393677 65.1395 0.0393677C66.7334 0.0393677 67.9475 0.223657 68.7805 0.602349C69.6125 0.979918 70.2045 1.43278 70.5577 1.96317C70.9099 2.49356 71.0876 3.03407 71.0909 3.5802C71.0931 4.12745 71.0665 4.55221 71.0109 4.84775C70.9743 5.04103 70.9554 5.13879 70.9187 5.33207C69.0771 15.0286 68.1907 19.7055 66.3413 29.5313L66.3424 29.5302Z" fill="#3C3C3B"/>
<path d="M82.4773 29.5324C79.4049 29.5313 77.8632 29.5302 74.7441 29.5302C73.9744 29.5302 73.3379 29.3863 72.8347 29.1009C72.3305 28.8155 71.9328 28.448 71.6418 28.0019C71.3508 27.5547 71.1608 27.0636 71.0709 26.5265C70.9809 25.9893 70.9809 25.4691 71.0731 24.9611C71.1486 24.5454 71.1853 24.3375 71.2619 23.9239C72.5748 16.7962 73.339 13.1082 74.713 5.89617C74.793 5.47702 74.833 5.26689 74.9119 4.84887C75.0085 4.34095 75.1996 3.81954 75.485 3.28803C75.7716 2.75538 76.1415 2.27219 76.5947 1.83731C77.049 1.40243 77.5799 1.04734 78.1897 0.772026C78.7984 0.495592 79.4882 0.357375 80.2579 0.358499C83.3758 0.360746 84.9187 0.356251 87.9911 0.354004C87.7811 1.45412 87.6745 2.01261 87.4634 3.1352C85.7684 3.1352 84.9198 3.1352 83.2148 3.1352C82.2684 3.1352 81.7941 3.1352 80.8422 3.13632C80.1546 3.13632 79.5615 3.36781 79.0617 3.8319C78.5618 4.296 78.2508 4.86347 78.1231 5.53209C78.0953 5.67704 78.082 5.74896 78.0542 5.89392C77.4899 8.85604 77.2545 10.2483 76.5947 13.2947C79.4771 13.2902 80.9089 13.2947 83.7668 13.297C83.4847 14.6027 83.3259 15.2489 83.0926 16.5097C80.2235 16.5074 78.7751 16.5063 75.9016 16.5063C75.3573 19.4347 75.1518 20.9877 74.6031 23.9172C74.5731 24.0756 74.5586 24.1554 74.5287 24.315C74.4109 24.9533 74.5153 25.5084 74.843 25.977C75.1707 26.4456 75.6783 26.6804 76.367 26.6827C77.32 26.6849 77.7943 26.6849 78.7418 26.6883C80.4479 26.6928 81.2965 26.695 82.9926 26.7018C82.7883 27.8289 82.6861 28.3963 82.4728 29.5335L82.4773 29.5324Z" fill="#3C3C3B"/>
<path d="M101.631 19.3436C101.237 21.3135 101.065 22.3001 100.701 24.2093C100.64 24.5273 100.61 24.6869 100.549 25.006C100.493 25.2982 100.359 25.7162 100.147 26.2601C99.935 26.8051 99.5518 27.3434 98.9998 27.8715C98.4466 28.4019 97.6858 28.8581 96.7183 29.2413C95.7497 29.6256 94.479 29.8178 92.9106 29.8178C91.3422 29.8178 90.1526 29.6245 89.3406 29.2357C88.5264 28.8469 87.9489 28.3828 87.6056 27.8457C87.2613 27.3085 87.0869 26.7725 87.0813 26.2365C87.0758 25.7016 87.1025 25.2746 87.1624 24.9555C87.2369 24.5566 87.2746 24.3565 87.349 23.9587C87.6945 22.1293 87.88 21.1832 88.211 19.3099C88.2854 18.8863 88.3232 18.675 88.3976 18.2525C88.4642 17.8738 88.6409 17.3614 88.9319 16.7198C89.2229 16.0781 89.7483 15.5073 90.5325 14.8892C90.2526 14.5802 90.0504 14.26 89.9238 13.9273C89.7972 13.5947 89.7138 13.2778 89.6739 12.9778C89.6339 12.6789 89.6283 12.3923 89.6605 12.1215C89.6916 11.8518 89.7272 11.6237 89.7672 11.4361C89.856 11.0169 89.9005 10.809 89.986 10.3932C90.3581 8.58856 90.4892 7.71094 90.8091 5.8849C90.8801 5.48036 90.9157 5.27809 90.9879 4.87355C91.0456 4.54992 91.1767 4.11168 91.3833 3.55993C91.5888 3.00819 91.9642 2.46543 92.5074 1.93167C93.0506 1.39903 93.8003 0.943921 94.7589 0.564105C95.7164 0.185413 96.976 0 98.5455 0C100.115 0 101.312 0.189908 102.135 0.57759C102.957 0.966395 103.545 1.42487 103.896 1.95976C104.246 2.49465 104.424 3.04527 104.431 3.60488C104.438 4.16561 104.418 4.59824 104.368 4.89828C104.314 5.2264 104.287 5.39046 104.235 5.71634C103.873 7.99973 103.739 9.06164 103.235 11.3001C103.221 11.3641 103.214 11.3956 103.2 11.4597C103.163 11.6192 103.101 11.8338 103.015 12.1013C102.929 12.3687 102.804 12.6587 102.644 12.9699C102.485 13.2812 102.272 13.6015 102.008 13.9307C101.743 14.26 101.412 14.578 101.015 14.8847C101.304 15.1926 101.523 15.4826 101.663 15.8028C101.803 16.1231 101.89 16.44 101.923 16.749C101.958 17.0603 101.96 17.3513 101.933 17.6221C101.906 17.8929 101.877 18.1109 101.844 18.275C101.76 18.6998 101.717 18.9133 101.631 19.3403V19.3436ZM98.1134 2.9756C97.3803 2.9756 96.7694 3.06325 96.2807 3.23967C95.7908 3.41497 95.3998 3.62398 95.1088 3.86783C94.8167 4.11168 94.6067 4.37575 94.4779 4.66005C94.349 4.94435 94.2635 5.20842 94.2213 5.45227C94.2046 5.54891 94.1958 5.59835 94.1802 5.69499C93.8181 7.81881 93.6748 8.82679 93.2283 10.9236C93.1772 11.163 93.1683 11.4181 93.2027 11.6855C93.2361 11.9552 93.3516 12.2103 93.5482 12.4553C93.7448 12.6991 94.048 12.9036 94.4601 13.0677C94.8711 13.2318 95.4454 13.3138 96.1818 13.3149C96.8927 13.3149 97.4836 13.2284 97.9557 13.052C98.4277 12.8755 98.811 12.6587 99.1042 12.4024C99.3985 12.1474 99.6107 11.8721 99.7418 11.5788C99.8728 11.2855 99.9617 11.0326 100.008 10.8191C100.043 10.6596 100.061 10.5809 100.095 10.4213C100.482 8.62339 100.584 7.75364 100.876 5.91861C100.899 5.77253 100.911 5.69949 100.935 5.55228C100.975 5.30843 100.985 5.04211 100.968 4.75556C100.95 4.46789 100.848 4.18921 100.659 3.91503C100.472 3.64309 100.176 3.41834 99.7751 3.24192C99.3741 3.0655 98.8198 2.97785 98.1123 2.97785L98.1134 2.9756ZM98.2978 19.3403C98.33 19.1762 98.3456 19.0942 98.3778 18.9301C98.4255 18.684 98.4444 18.4188 98.4344 18.1323C98.4233 17.8469 98.3244 17.576 98.1356 17.3176C97.9479 17.0603 97.6513 16.8445 97.2492 16.6692C96.8471 16.4939 96.2884 16.4062 95.5753 16.4051C94.8356 16.4051 94.2191 16.4905 93.7259 16.6647C93.2305 16.8389 92.8351 17.0456 92.5407 17.2884C92.2453 17.53 92.032 17.7929 91.9009 18.0772C91.7687 18.3626 91.681 18.6267 91.6366 18.8706C91.6032 19.0504 91.5877 19.1402 91.5544 19.32C91.1956 21.2798 91.0045 22.2642 90.6435 24.1734C90.6258 24.2689 90.6169 24.3172 90.598 24.4127C90.558 24.6251 90.5514 24.8712 90.5769 25.151C90.6025 25.4308 90.7157 25.6904 90.9201 25.932C91.1223 26.1725 91.4366 26.3815 91.8621 26.5556C92.2853 26.7309 92.864 26.8186 93.5982 26.8208C94.3057 26.8231 94.8922 26.7399 95.3576 26.568C95.823 26.3961 96.2007 26.1848 96.485 25.932C96.7705 25.6803 96.9727 25.4162 97.0926 25.1364C97.2115 24.8577 97.2948 24.5993 97.3392 24.3622C97.367 24.2194 97.3803 24.1475 97.407 24.0048C97.7535 22.1777 97.9279 21.227 98.2967 19.3403H98.2978Z" fill="#E06F1E"/>
<path d="M4.86514 34.5082H6.80674C7.19218 34.5082 7.51652 34.5542 7.77755 34.6475C8.0408 34.7397 8.24518 34.8723 8.39957 35.0431C8.55174 35.2139 8.6606 35.4173 8.72391 35.6499C8.78945 35.8836 8.82055 36.1443 8.82055 36.432C8.82055 36.7893 8.79611 37.1714 8.74502 37.5804C8.69614 37.9883 8.61173 38.3929 8.49621 38.794C8.3818 39.1963 8.23296 39.5806 8.05301 39.9515C7.87418 40.3223 7.65869 40.6482 7.40877 40.9291C7.15663 41.21 6.86228 41.4348 6.52794 41.6033C6.19138 41.7719 5.81372 41.8562 5.39275 41.8562H3.35895L4.86514 34.5082ZM4.39751 41.1145H5.33388C5.67821 41.1145 5.98256 41.0325 6.24359 40.8673C6.50462 40.7032 6.72788 40.4875 6.91449 40.2189C7.10109 39.9515 7.25549 39.6526 7.37878 39.3244C7.49986 38.9941 7.59871 38.6648 7.67202 38.3356C7.74756 38.0063 7.79976 37.6939 7.82642 37.3995C7.85308 37.1051 7.86752 36.8601 7.86752 36.6691C7.86752 36.4634 7.84752 36.2747 7.80643 36.1027C7.76533 35.9319 7.69313 35.7825 7.59316 35.6555C7.49097 35.5285 7.35546 35.4296 7.18662 35.3577C7.01668 35.2847 6.8023 35.2487 6.5446 35.2487H5.60823L4.39973 41.1145H4.39751Z" fill="#3C3C3B"/>
<path d="M11.0887 36.3398H11.9451L10.8166 41.8562H9.96017L11.0887 36.3398ZM11.4664 34.5082H12.3205L12.1173 35.4959H11.2631L11.4664 34.5082Z" fill="#3C3C3B"/>
<path d="M16.136 37.9557C16.1771 37.7849 16.1971 37.6265 16.1971 37.4826C16.1971 37.2849 16.1482 37.1332 16.0493 37.0298C15.9505 36.9275 15.7861 36.8758 15.5573 36.8758C15.4962 36.8758 15.4051 36.8837 15.2863 36.9006C15.1674 36.9185 15.0497 36.9612 14.9308 37.0298C14.812 37.0983 14.7075 37.2006 14.6142 37.3343C14.5243 37.4669 14.4765 37.6512 14.4765 37.8849C14.4765 38.0085 14.5109 38.1131 14.5787 38.1985C14.6465 38.285 14.7342 38.358 14.8431 38.4198C14.9497 38.4816 15.0752 38.5356 15.2141 38.5794C15.3518 38.6243 15.4929 38.6704 15.635 38.7187C15.7705 38.7671 15.9016 38.8187 16.0271 38.8727C16.1526 38.9277 16.2648 38.9963 16.3637 39.0794C16.4603 39.1615 16.5403 39.266 16.6014 39.393C16.6625 39.5199 16.6936 39.6761 16.6936 39.8616C16.6936 40.2245 16.6303 40.5403 16.5048 40.8088C16.3792 41.0763 16.2148 41.2977 16.0127 41.4718C15.8072 41.6471 15.5773 41.7786 15.3207 41.8685C15.0619 41.9573 14.8008 42.0022 14.5365 42.0022C14.2099 42.0022 13.9456 41.964 13.7423 41.8887C13.539 41.8134 13.3813 41.7134 13.2702 41.5898C13.1569 41.4662 13.0814 41.328 13.0403 41.1741C13.0014 41.019 12.9803 40.8673 12.9803 40.7167C12.9803 40.5864 12.9881 40.4639 13.0048 40.3515C13.0214 40.238 13.0392 40.1369 13.0603 40.047H13.9167C13.8756 40.2256 13.8556 40.3942 13.8556 40.5515C13.8556 40.7718 13.9134 40.9538 14.0278 41.1021C14.1422 41.2505 14.3565 41.3246 14.6687 41.3246C14.7298 41.3246 14.8231 41.31 14.9497 41.2831C15.0752 41.2561 15.1985 41.2021 15.3207 41.1235C15.4418 41.0448 15.5506 40.9313 15.645 40.7841C15.7394 40.6369 15.7883 40.4391 15.7883 40.1919C15.7883 40.0481 15.7539 39.929 15.6861 39.8368C15.6184 39.7447 15.5317 39.666 15.4273 39.5997C15.3207 39.5357 15.2018 39.4784 15.0663 39.43C14.9308 39.3817 14.7931 39.3334 14.6576 39.2862C14.5298 39.2446 14.401 39.1986 14.2721 39.1469C14.1433 39.0963 14.0278 39.0289 13.9278 38.9468C13.8256 38.8648 13.7434 38.7603 13.6834 38.6333C13.6223 38.5052 13.5912 38.3502 13.5912 38.1647C13.5912 37.8344 13.6512 37.5467 13.7701 37.2995C13.8889 37.0523 14.0466 36.8466 14.2488 36.6814C14.4476 36.5174 14.6742 36.3949 14.9241 36.3162C15.1741 36.2376 15.4329 36.1982 15.6983 36.1982C15.9838 36.1982 16.2137 36.232 16.3903 36.2971C16.567 36.3612 16.7047 36.4455 16.8024 36.5488C16.9013 36.6511 16.9691 36.7702 17.0057 36.9039C17.0424 37.0377 17.0612 37.1736 17.0612 37.3107C17.0612 37.4265 17.0535 37.54 17.0368 37.6501C17.0179 37.7602 17.0035 37.8625 16.989 37.958H16.1349L16.136 37.9557Z" fill="#3C3C3B"/>
<path d="M19.867 34.7352H20.7234L20.3969 36.3398H21.3432L21.2 37.0186H20.2558L19.5338 40.5594C19.5194 40.6145 19.5094 40.6639 19.5027 40.7088C19.4949 40.7538 19.4927 40.7965 19.4927 40.8381C19.4927 40.9538 19.5272 41.0403 19.5994 41.0954C19.6716 41.1493 19.7904 41.1774 19.9603 41.1774C20.0548 41.1774 20.1303 41.1741 20.1881 41.1673C20.2458 41.1606 20.2991 41.1538 20.3458 41.1471L20.2036 41.8573C20.1425 41.8708 20.0514 41.8842 19.9326 41.8989C19.8159 41.9123 19.6682 41.9191 19.4916 41.9191C19.1384 41.9191 18.8962 41.8651 18.7629 41.755C18.6319 41.6449 18.5663 41.4808 18.5663 41.2606C18.5663 41.192 18.5708 41.1235 18.5808 41.0549C18.5908 40.9864 18.603 40.9111 18.6174 40.8291L19.3994 37.0208H18.6074L18.7496 36.3421H19.5438L19.8682 34.7374L19.867 34.7352Z" fill="#3C3C3B"/>
<path d="M22.9416 36.3398H23.7958L23.6236 37.1635H23.6436C23.8202 36.9028 24.0168 36.6769 24.239 36.4848C24.4589 36.2926 24.7211 36.196 25.0276 36.196C25.1898 36.196 25.3109 36.2162 25.3931 36.2578L25.2209 37.1017C25.1798 37.095 25.1265 37.086 25.0632 37.0759C24.9999 37.0657 24.8988 37.0601 24.7633 37.0601C24.6544 37.0601 24.5311 37.086 24.3923 37.1365C24.2523 37.1882 24.1157 37.2669 23.9802 37.3736C23.8447 37.4804 23.7236 37.6152 23.6147 37.7804C23.5059 37.9445 23.4281 38.1411 23.3804 38.367L22.6684 41.855H21.8142L22.9427 36.3387L22.9416 36.3398Z" fill="#3C3C3B"/>
<path d="M27.0181 36.3398H27.8745L26.746 41.8562H25.8896L27.0181 36.3398ZM27.3958 34.5082H28.2499L28.0467 35.4959H27.1925L27.3958 34.5082Z" fill="#3C3C3B"/>
<path d="M30.437 34.5082H31.2912L30.7847 36.968H30.8036C30.9535 36.7286 31.1568 36.5387 31.4156 36.4016C31.6722 36.2634 31.9454 36.1949 32.2287 36.1949C32.5963 36.1949 32.8696 36.2938 33.0473 36.4882C33.2283 36.6837 33.345 36.9253 33.3983 37.2141C33.4538 37.5018 33.4638 37.8164 33.4294 38.1558C33.3961 38.4951 33.3494 38.8086 33.2872 39.0974C33.205 39.4874 33.0939 39.8582 32.9562 40.2088C32.8162 40.5583 32.6485 40.8662 32.4508 41.1302C32.2553 41.3954 32.0276 41.6056 31.7699 41.764C31.5133 41.9213 31.2279 42.0011 30.9157 42.0011C30.6036 42.0011 30.3759 41.9146 30.1937 41.7438C30.0116 41.573 29.9127 41.3831 29.8983 41.1774H29.8783L29.7472 41.8562H28.9341L30.4381 34.5082H30.437ZM30.2948 39.0986C30.2337 39.3795 30.1904 39.6514 30.1671 39.911C30.1426 40.1717 30.1504 40.4009 30.1915 40.5998C30.2326 40.7976 30.3126 40.9583 30.4314 41.0785C30.5481 41.1977 30.7225 41.2583 30.9546 41.2583C31.1512 41.2583 31.3256 41.2055 31.4778 41.0988C31.63 40.9931 31.7655 40.8437 31.8799 40.6515C31.9943 40.4594 32.0931 40.2324 32.1753 39.9672C32.2553 39.7031 32.3275 39.4143 32.3886 39.0986C32.4564 38.7682 32.503 38.4704 32.5308 38.203C32.5574 37.9355 32.553 37.7085 32.5163 37.5242C32.4775 37.3399 32.4053 37.195 32.2964 37.0927C32.1876 36.9905 32.0354 36.9377 31.8388 36.9377C31.6089 36.9377 31.4078 36.9995 31.239 37.1219C31.069 37.2456 30.9224 37.4107 30.8002 37.6164C30.6791 37.822 30.577 38.0535 30.497 38.3108C30.4148 38.5682 30.347 38.8311 30.2937 39.0986H30.2948Z" fill="#3C3C3B"/>
<path d="M38.249 41.8561H37.4359L37.567 41.2077H37.547C37.377 41.4606 37.1527 41.6561 36.8761 41.7943C36.5973 41.9314 36.3263 42 36.063 42C35.8253 42 35.6298 41.9719 35.4776 41.9168C35.3233 41.8629 35.2044 41.7887 35.1167 41.6954C35.0289 41.6033 34.9667 41.4954 34.9323 41.3718C34.8989 41.2482 34.8834 41.1212 34.8834 40.9909C34.8834 40.8605 34.8934 40.7324 34.9123 40.6054C34.9323 40.4773 34.9578 40.3593 34.9845 40.2503L35.7887 36.3398H36.6428L35.8586 40.1481C35.8464 40.2234 35.832 40.302 35.8198 40.3852C35.8053 40.4672 35.7998 40.5492 35.7998 40.6313C35.7998 40.7965 35.8409 40.9425 35.9275 41.0695C36.0119 41.1965 36.1819 41.2594 36.4407 41.2594C36.5551 41.2594 36.6806 41.2392 36.8161 41.1976C36.9516 41.1561 37.0805 41.0909 37.2038 41.001C37.3248 40.9122 37.4359 40.7976 37.5348 40.656C37.6336 40.5155 37.7014 40.3459 37.7425 40.147L38.5267 36.3387H39.3809L38.2523 41.855L38.249 41.8561Z" fill="#3C3C3B"/>
<path d="M41.5635 36.3398H42.4199L41.2913 41.8562H40.4349L41.5635 36.3398ZM41.9411 34.5082H42.7953L42.592 35.4959H41.7379L41.9411 34.5082Z" fill="#3C3C3B"/>
<path d="M47.0684 41.8562H46.2553L46.3864 41.1774H46.3664C46.3186 41.2797 46.2498 41.3808 46.1587 41.4808C46.0665 41.5809 45.9621 41.6674 45.8421 41.7438C45.7233 41.8191 45.5933 41.8809 45.4567 41.9281C45.3167 41.9764 45.1734 42.0011 45.0235 42.0011C44.5414 42.0011 44.1982 41.855 43.9916 41.564C43.7839 41.2718 43.6817 40.8729 43.6817 40.365C43.6817 40.2684 43.6917 40.0987 43.7128 39.8548C43.7317 39.6121 43.7728 39.3357 43.8339 39.0267C43.895 38.7188 43.9816 38.3974 44.0927 38.0648C44.206 37.7321 44.3537 37.4276 44.5359 37.1489C44.718 36.8714 44.9424 36.6433 45.2068 36.4646C45.4711 36.2859 45.7877 36.1971 46.1531 36.1971C46.3975 36.1971 46.6185 36.2657 46.8207 36.4039C47.0195 36.541 47.1428 36.7298 47.1917 36.9703H47.2106L47.7193 34.5104H48.5757L47.0695 41.8584L47.0684 41.8562ZM44.728 39.0986C44.6803 39.3312 44.6436 39.5458 44.617 39.7413C44.5881 39.9369 44.5759 40.1167 44.5759 40.2807C44.5759 40.5897 44.6292 40.8302 44.738 41.001C44.8469 41.1729 45.0291 41.2584 45.2879 41.2584C45.5178 41.2584 45.7188 41.2055 45.8877 41.0988C46.0576 40.9932 46.1998 40.8437 46.3142 40.6515C46.4286 40.4594 46.5275 40.2324 46.6097 39.9672C46.6919 39.7031 46.7618 39.4143 46.8229 39.0986C46.8574 38.9132 46.8862 38.7277 46.9151 38.5423C46.9418 38.358 46.9562 38.1794 46.9562 38.0074C46.9562 37.7052 46.8962 37.4523 46.7818 37.2456C46.6674 37.0399 46.4642 36.9377 46.172 36.9377C45.9754 36.9377 45.8021 36.9894 45.6522 37.0927C45.5022 37.195 45.3712 37.34 45.2556 37.5242C45.1412 37.7085 45.0402 37.9355 44.9557 38.203C44.8691 38.4704 44.7936 38.7693 44.7258 39.0986H44.728Z" fill="#3C3C3B"/>
<path d="M49.4987 39.0985C49.5809 38.7075 49.6853 38.3367 49.8153 37.9861C49.9441 37.6366 50.1107 37.3287 50.314 37.0646C50.5173 36.8005 50.7617 36.5893 51.0471 36.4308C51.3304 36.2735 51.6714 36.1937 52.0635 36.1937C52.3489 36.1937 52.5866 36.2353 52.7821 36.3173C52.9754 36.4005 53.1309 36.5151 53.2498 36.6623C53.3664 36.8106 53.453 36.9871 53.5041 37.1927C53.553 37.3984 53.5796 37.622 53.5796 37.8613C53.5796 38.3479 53.5241 38.8367 53.4153 39.3278C53.3064 39.8177 53.142 40.2627 52.9232 40.6594C52.7033 41.0583 52.4222 41.3797 52.0835 41.6269C51.7447 41.8741 51.3404 41.9977 50.8727 41.9977C50.5895 41.9977 50.3496 41.9561 50.1563 41.8741C49.963 41.7921 49.8075 41.6752 49.6887 41.5246C49.5698 41.3741 49.4854 41.1965 49.4343 40.9942C49.3832 40.7931 49.3588 40.5672 49.3588 40.32C49.3588 39.9492 49.4065 39.5413 49.5009 39.0963L49.4987 39.0985ZM50.9849 41.3212C51.2559 41.3212 51.4959 41.2145 51.7069 41.001C51.9157 40.7897 52.0923 40.5167 52.2345 40.1885C52.3778 39.8593 52.4867 39.4941 52.5611 39.0929C52.6355 38.6906 52.6744 38.3018 52.6744 37.9254C52.6744 37.6096 52.6166 37.3556 52.5055 37.1635C52.3922 36.9713 52.1912 36.8758 51.9002 36.8758C51.6358 36.8758 51.4014 36.9837 51.1982 37.1995C50.9949 37.4152 50.8227 37.6894 50.6783 38.0231C50.5362 38.3558 50.4284 38.7243 50.354 39.1289C50.2785 39.5334 50.2407 39.9256 50.2407 40.302C50.2407 40.6043 50.2962 40.8493 50.4029 41.0381C50.5117 41.2269 50.705 41.3212 50.9838 41.3212H50.9849Z" fill="#3C3C3B"/>
<path d="M55.8678 36.3398H56.722L56.5498 37.1635H56.5698C56.7464 36.9028 56.9431 36.6769 57.1652 36.4848C57.3851 36.2926 57.6473 36.196 57.9538 36.196C58.116 36.196 58.2371 36.2162 58.3193 36.2578L58.1471 37.1017C58.106 37.095 58.0527 37.086 57.9894 37.0759C57.9261 37.0657 57.825 37.0601 57.6895 37.0601C57.5806 37.0601 57.4573 37.086 57.3185 37.1365C57.1785 37.1882 57.0419 37.2669 56.9064 37.3736C56.7709 37.4804 56.6498 37.6152 56.541 37.7804C56.4321 37.9445 56.3544 38.1411 56.3066 38.367L55.5946 41.855H54.7404L55.8689 36.3387L55.8678 36.3398Z" fill="#3C3C3B"/>
<path d="M65.8158 41.8562H65.0027L65.1338 41.1774H65.1138C65.0661 41.2797 64.9972 41.3808 64.9061 41.4808C64.8139 41.5809 64.7095 41.6674 64.5895 41.7438C64.4707 41.8191 64.3407 41.8809 64.2041 41.9281C64.0641 41.9764 63.9209 42.0011 63.7709 42.0011C63.2888 42.0011 62.9456 41.855 62.739 41.564C62.5313 41.2718 62.4291 40.8729 62.4291 40.365C62.4291 40.2684 62.4391 40.0987 62.4602 39.8548C62.4791 39.6121 62.5202 39.3357 62.5813 39.0267C62.6424 38.7188 62.729 38.3974 62.8401 38.0648C62.9534 37.7321 63.1011 37.4276 63.2833 37.1489C63.4654 36.8714 63.6898 36.6433 63.9542 36.4646C64.2185 36.2859 64.5351 36.1971 64.9005 36.1971C65.1449 36.1971 65.366 36.2657 65.5681 36.4039C65.7669 36.541 65.8902 36.7298 65.9391 36.9703H65.958L66.4667 34.5104H67.3231L65.8169 41.8584L65.8158 41.8562ZM63.4754 39.0986C63.4277 39.3312 63.391 39.5458 63.3644 39.7413C63.3355 39.9369 63.3233 40.1167 63.3233 40.2807C63.3233 40.5897 63.3766 40.8302 63.4854 41.001C63.5943 41.1729 63.7765 41.2584 64.0353 41.2584C64.2652 41.2584 64.4662 41.2055 64.6351 41.0988C64.805 40.9932 64.9472 40.8437 65.0616 40.6515C65.176 40.4594 65.2749 40.2324 65.3571 39.9672C65.4393 39.7031 65.5092 39.4143 65.5703 39.0986C65.6048 38.9132 65.6337 38.7277 65.6625 38.5423C65.6892 38.358 65.7036 38.1794 65.7036 38.0074C65.7036 37.7052 65.6436 37.4523 65.5292 37.2456C65.4148 37.0399 65.2116 36.9377 64.9194 36.9377C64.7228 36.9377 64.5496 36.9894 64.3996 37.0927C64.2496 37.195 64.1186 37.34 64.0031 37.5242C63.8886 37.7085 63.7876 37.9355 63.7032 38.203C63.6165 38.4704 63.541 38.7693 63.4732 39.0986H63.4754Z" fill="#3C3C3B"/>
<path d="M69.2025 39.2008C69.1692 39.3851 69.1325 39.5807 69.0958 39.7874C69.0592 39.9931 69.0403 40.1953 69.0403 40.3942C69.0403 40.656 69.0914 40.8752 69.198 41.0538C69.3024 41.2325 69.5079 41.3213 69.8134 41.3213C70.0167 41.3213 70.1888 41.2741 70.331 41.1819C70.4743 41.0898 70.592 40.9763 70.682 40.8426C70.7742 40.7089 70.8464 40.5673 70.8953 40.4201C70.9464 40.2729 70.9819 40.1481 71.0019 40.0447H71.8583C71.8239 40.1886 71.7572 40.3729 71.6595 40.5965C71.5606 40.8201 71.4229 41.0359 71.2474 41.2449C71.0708 41.455 70.8508 41.6337 70.5865 41.7809C70.3221 41.9281 70.0033 42.0023 69.6301 42.0023C69.1236 42.0023 68.7515 41.8742 68.5171 41.6213C68.2828 41.3685 68.1661 40.9729 68.1661 40.438C68.1661 40.2257 68.1828 39.974 68.215 39.6818C68.2494 39.3896 68.305 39.0862 68.3838 38.7705C68.4616 38.4558 68.566 38.1445 68.7004 37.8389C68.8315 37.5332 68.9981 37.2591 69.1991 37.0152C69.398 36.7725 69.6379 36.5747 69.9156 36.423C70.1944 36.2724 70.5132 36.1971 70.8719 36.1971C71.1485 36.1971 71.3807 36.2365 71.564 36.3151C71.7461 36.3938 71.8927 36.5005 72.0016 36.6354C72.1104 36.768 72.186 36.9231 72.2315 37.0984C72.2748 37.2725 72.297 37.4602 72.297 37.6591C72.297 37.858 72.2804 38.0569 72.2515 38.2558C72.2204 38.4547 72.1838 38.6536 72.1427 38.8525L72.0727 39.202H69.2036L69.2025 39.2008ZM71.3185 38.521L71.3796 38.2232C71.3918 38.1412 71.404 38.058 71.414 37.976C71.424 37.894 71.4307 37.8119 71.4307 37.7288C71.4307 37.5029 71.3796 37.304 71.2763 37.1321C71.1752 36.9613 70.9852 36.8759 70.7076 36.8759C70.4843 36.8759 70.2932 36.9354 70.1366 37.0557C69.98 37.1759 69.8512 37.3152 69.7512 37.4714C69.649 37.6299 69.5701 37.7894 69.5168 37.9501C69.4613 38.112 69.4291 38.2333 69.4146 38.3153L69.3735 38.521H71.3174H71.3185Z" fill="#3C3C3B"/>
<path d="M78.8061 41.8561H77.9108L79.2526 35.3116H77.4321L77.5942 34.5093H82.1406L81.9784 35.3116H80.1479L78.8061 41.8561Z" fill="#3C3C3B"/>
<path d="M83.8312 34.5082H84.7264L83.2225 41.8562H82.325L83.8312 34.5082Z" fill="#3C3C3B"/>
<path d="M90.3702 39.3356C90.2758 39.6851 90.1525 40.02 90.0048 40.3391C89.8548 40.6583 89.6704 40.9414 89.4505 41.1887C89.2283 41.4359 88.9684 41.6325 88.6663 41.7809C88.3642 41.9281 88.0154 42.0022 87.6233 42.0022C87.2767 42.0022 86.9913 41.9505 86.7636 41.8472C86.5359 41.7449 86.3526 41.6044 86.216 41.4258C86.076 41.2471 85.9794 41.037 85.9249 40.792C85.8716 40.5493 85.845 40.2863 85.845 40.0054C85.845 39.7245 85.865 39.4188 85.9105 39.1098C85.9538 38.8019 86.0071 38.4929 86.0682 38.1838C86.1626 37.7254 86.2837 37.2669 86.4337 36.8107C86.5836 36.3544 86.778 35.9443 87.019 35.5813C87.259 35.2172 87.5567 34.9239 87.9099 34.7014C88.2609 34.4778 88.6896 34.3666 89.1906 34.3666C89.8026 34.3666 90.2436 34.5059 90.519 34.7824C90.7945 35.061 90.9311 35.4532 90.9311 35.9611C90.9311 36.1735 90.9111 36.405 90.87 36.65H89.9337C89.9748 36.4657 89.9948 36.2836 89.9948 36.105C89.9948 35.8173 89.9226 35.5791 89.7815 35.3892C89.6382 35.2015 89.3916 35.1071 89.0384 35.1071C88.7263 35.1071 88.4619 35.1869 88.2442 35.3487C88.0265 35.5094 87.8421 35.7285 87.6855 36.0072C87.53 36.2859 87.3978 36.6118 87.2934 36.9848C87.189 37.359 87.0901 37.758 87.0035 38.1827C86.928 38.5187 86.868 38.8367 86.8247 39.1345C86.7791 39.4334 86.7591 39.7098 86.7591 39.9627C86.7591 40.3537 86.8336 40.6673 86.9824 40.9044C87.1301 41.1415 87.3945 41.2595 87.7744 41.2595C88.0454 41.2595 88.2753 41.201 88.4619 41.0853C88.6485 40.9684 88.8051 40.8178 88.9295 40.6313C89.0551 40.447 89.155 40.2414 89.2328 40.0144C89.3105 39.7885 89.3783 39.5615 89.4316 39.3356H90.368H90.3702Z" fill="#3C3C3B"/>
</g>
<defs>
<clipPath id="clip0_235_430">
<rect width="104.432" height="42" fill="white"/>
</clipPath>
</defs>
</svg>
